<?xml version="1.0" encoding="UTF-8"?>
<svg version="1.1" xmlns="http://www.w3.org/2000/svg" width="512" height="489">
<path d="M0 0 C168.96 0 337.92 0 512 0 C512 161.37 512 322.74 512 489 C343.04 489 174.08 489 0 489 C0 327.63 0 166.26 0 0 Z " fill="#FEFDFE" transform="translate(0,0)"/>
<path d="M0 0 C29.04 0 58.08 0 88 0 C88 25.49212517 82.2921713 49.09903887 76.0625 73.6875 C68.06800009 105.28377396 61.93278336 136.32041759 61 169 C81.87375514 167.59303471 102.60295563 165.89725338 123.33813477 163.11010742 C129.96508631 162.23132453 136.5941731 161.49717383 143.25 160.875 C144.12551514 160.79233887 145.00103027 160.70967773 145.90307617 160.62451172 C149.41436349 160.30047615 152.91709549 160.0048989 156.4375 159.796875 C160.762664 159.53255942 164.15622281 159.10000314 168.0546875 157.1484375 C173.49771468 154.64513738 179.04397364 153.30292606 184.875 152 C185.9997876 151.74581299 187.1245752 151.49162598 188.28344727 151.22973633 C207.03202448 147.1200856 225.8206166 144.57464847 245 144 C245.16984968 173.01293846 244.6835694 201.99556868 244 231 C233.09076902 231.21088725 222.58142405 230.76466078 211.75 229.25 C210.38942736 229.06607283 209.02883124 228.88231925 207.66821289 228.69873047 C197.66316863 227.32650039 187.75616237 225.62943247 177.86816406 223.5859375 C174.56954847 222.91206302 171.26575221 222.26777454 167.9609375 221.625 C155.86108551 219.2592687 143.81047931 216.77715001 131.8125 213.9375 C107.71738656 208.28488096 83.56924428 204.7191532 59 202 C59.13059814 202.92546631 59.26119629 203.85093262 59.39575195 204.80444336 C60.41181405 212.18083888 61.27060487 219.53058368 61.88647461 226.953125 C63.26880148 243.5275942 65.30451043 260.00734656 67.4375 276.5 C67.58271088 277.63374054 67.72792175 278.76748108 67.87753296 279.93557739 C69.79166164 294.83044249 72.017319 309.64247153 74.56652832 324.44165039 C75.22545745 328.33064974 75.83481893 332.22695178 76.4375 336.125 C77.34813274 341.98144486 78.3038634 347.82881017 79.296875 353.671875 C79.528086 355.03759599 79.75928712 356.40331866 79.99047852 357.76904297 C80.44740118 360.46677704 80.90972034 363.16351745 81.37475586 365.85986328 C81.69005249 367.71973877 81.69005249 367.71973877 82.01171875 369.6171875 C82.20209717 370.72690918 82.39247559 371.83663086 82.58862305 372.97998047 C83 376 83 376 83 381 C54.29 381 25.58 381 -4 381 C-3.38180014 372.34520202 -2.73134691 364.06340561 -1.3125 355.5625 C-1.13807373 354.50377686 -0.96364746 353.44505371 -0.78393555 352.35424805 C2.5256063 332.62137285 6.4007432 313.03010065 10.92495728 293.54159546 C11.30106651 291.92013212 11.67405948 290.29794197 12.04354858 288.67495728 C18.483998 260.516002 18.483998 260.516002 23 256 C23.18169748 254.3453037 23.29853706 252.68342719 23.38891602 251.02124023 C23.44890274 249.96021591 23.50888947 248.89919159 23.57069397 247.80601501 C23.63115402 246.651866 23.69161407 245.49771698 23.75390625 244.30859375 C23.81907944 243.13361832 23.88425262 241.95864288 23.95140076 240.74806213 C24.15949456 236.97810094 24.36106166 233.20782212 24.5625 229.4375 C24.7020457 226.88864839 24.842014 224.33981988 24.98242188 221.79101562 C25.32652707 215.527604 25.66526784 209.26391915 26 203 C-17.48158618 204.46076752 -59.44281166 208.75197013 -101.98779297 217.95361328 C-113.21280213 220.33605646 -124.51606891 222.30275901 -135.8125 224.3125 C-137.34857407 224.5870401 -137.34857407 224.5870401 -138.91567993 224.86712646 C-141.84556867 225.38991025 -144.77613655 225.90867008 -147.70703125 226.42578125 C-149.0459845 226.66445168 -149.0459845 226.66445168 -150.4119873 226.90794373 C-151.23614136 227.05216263 -152.06029541 227.19638153 -152.90942383 227.3449707 C-153.62979324 227.47200882 -154.35016266 227.59904694 -155.09236145 227.72993469 C-157 228 -157 228 -160 228 C-160 199.29 -160 170.58 -160 141 C-135.87146532 143.29795568 -135.87146532 143.29795568 -125.859375 145.171875 C-124.73502548 145.37487213 -123.61067596 145.57786926 -122.45225525 145.78701782 C-118.88331745 146.43329988 -115.31671058 147.0915498 -111.75 147.75 C-109.25511754 148.2034812 -106.76008004 148.65611017 -104.26489258 149.10791016 C-94.58427225 150.86406023 -84.9085728 152.64678166 -75.23342896 154.43281555 C-30.39479144 162.75964111 -30.39479144 162.75964111 14.99023438 166.7097168 C19.07320016 166.86064535 22.98606945 167.22881964 27 168 C26.50796097 131.6145624 20.32345496 96.4117113 11.90625 61.078125 C9.93477543 52.79982744 8.06499849 44.49952391 6.2171936 36.19284058 C5.86899773 34.6281157 5.51988334 33.06359489 5.16976929 31.4992981 C0 8.39420665 0 8.39420665 0 0 Z " fill="#15518B" transform="translate(217,56)"/>
<path d="M0 0 C84.96884995 10.20763463 170.92334873 10.93140726 256.38844788 12.43974102 C305.11756306 13.3004067 353.82486253 14.44566015 402.49359131 17.14453125 C405.02351211 17.28045364 407.55346032 17.41586656 410.08343506 17.55078125 C416.01214596 17.86796528 421.94046879 18.19154221 427.86859131 18.51953125 C427.86859131 21.48953125 427.86859131 24.45953125 427.86859131 27.51953125 C414.76039545 28.29689653 401.65145098 28.67923068 388.52484131 28.94921875 C387.67094 28.96681118 386.81703869 28.98440361 385.93726158 29.00252914 C381.35641099 29.09624625 376.77552113 29.18788967 372.1946106 29.27862549 C362.00893566 29.48062304 351.82346628 29.69211484 341.63812256 29.91015625 C340.0322399 29.94452475 340.0322399 29.94452475 338.39391518 29.97958755 C321.0955111 30.35323906 303.80038887 30.81288283 286.50531006 31.31640625 C285.32563974 31.35066523 284.14596943 31.3849242 282.93055153 31.42022133 C278.17730799 31.55833071 273.424074 31.69676568 268.67084599 31.83540821 C229.39499275 32.98082658 190.16454941 34.08317316 150.86859131 33.51953125 C150.53859131 35.16953125 150.20859131 36.81953125 149.86859131 38.51953125 C138.61104895 38.66497183 127.47997172 38.24346936 116.25140381 37.4609375 C114.61673766 37.35081149 112.98204252 37.24111499 111.34732056 37.13182068 C107.95379079 36.90386627 104.56051954 36.67249409 101.16741943 36.43823242 C96.84435333 36.13980095 92.52090174 35.8474928 88.19726753 35.55741978 C84.0276675 35.27739764 79.85828114 34.99425287 75.68890381 34.7109375 C74.90932438 34.65823763 74.12974495 34.60553776 73.3265419 34.55124092 C65.82294926 34.04212682 58.33264484 33.50279168 50.85214233 32.71360779 C39.48586863 31.60149773 27.4499369 31.46414457 16.50140381 34.84765625 C9.3851079 36.66368428 2.02519807 35.57010028 -5.13140869 34.51953125 C-5.03772865 41.57744119 -4.93027836 48.63505311 -4.81402588 55.69262695 C-4.77615369 58.08483334 -4.74123504 60.47708865 -4.70953369 62.86938477 C-4.53502641 75.88381029 -4.10427706 88.70251193 -2.5635376 101.63012695 C-2.05766225 106.18329088 -1.88877177 110.63276482 -2.00640869 115.20703125 C-2.01543213 115.93212891 -2.02445557 116.65722656 -2.03375244 117.40429688 C-2.05633839 119.10953613 -2.09211439 120.81459518 -2.13140869 122.51953125 C-3.78140869 122.51953125 -5.43140869 122.51953125 -7.13140869 122.51953125 C-7.01440329 125.20757634 -6.88781956 127.89467907 -6.75640869 130.58203125 C-6.72547119 131.31486328 -6.69453369 132.04769531 -6.66265869 132.80273438 C-6.40968946 137.79887665 -5.83957979 142.67479906 -5.11187744 147.625 C-4.09432035 155.01482268 -3.79168413 162.26480529 -3.81573486 169.71875 C-3.81892965 171.78307393 -3.7951759 173.846004 -3.77008057 175.91015625 C-3.72681075 185.12271163 -4.68090313 193.31220693 -8.63140869 201.70703125 C-9.44787307 204.45307509 -9.44787307 204.45307509 -8.03155518 206.234375 C-7.54759277 206.86472656 -7.06363037 207.49507812 -6.56500244 208.14453125 C-4.53395638 211.27202983 -3.77032486 213.03019367 -4.44781494 216.7265625 C-4.86208391 218.26201477 -5.27761389 219.79712699 -5.69390869 221.33203125 C-7.63560987 229.12196809 -8.71979785 236.76167809 -9.27203369 244.765625 C-9.35435745 245.92507629 -9.43668121 247.08452759 -9.52149963 248.27911377 C-10.35110809 261.10929492 -10.39802223 273.92989581 -10.33721924 286.78222656 C-10.31885728 290.78072605 -10.31671146 294.77880652 -10.31695557 298.77734375 C-10.29678897 313.29751498 -10.00643361 327.77155326 -9.24798584 342.27218628 C-8.80431323 350.82519539 -8.83292176 357.45009848 -12.13043213 365.47924805 C-13.19581459 368.71515238 -13.52916597 371.44530554 -13.72515869 374.84375 C-13.76169052 375.47628189 -13.79822235 376.10881378 -13.83586121 376.76051331 C-14.38340818 387.14837686 -14.50105891 397.55809872 -14.69390869 407.95703125 C-14.73720859 410.15300112 -14.78082605 412.34896476 -14.82476807 414.54492188 C-14.93063871 419.86972538 -15.03260474 425.19459217 -15.13140869 430.51953125 C-18.71742782 431.89876937 -22.05037825 432.7003583 -25.85406494 433.0859375 C-26.65723145 433.1691626 -27.46039795 433.2523877 -28.28790283 433.33813477 C-29.20043823 433.42792603 -29.20043823 433.42792603 -30.13140869 433.51953125 C-30.87971795 386.79857044 -31.24527544 340.07869985 -31.40554237 293.35222691 C-31.41266841 291.27842305 -31.41987768 289.20461949 -31.42710876 287.13081598 C-31.50885486 263.64542525 -31.58074277 240.16000512 -31.65094796 216.67457749 C-31.66181512 213.04127095 -31.67272193 209.40796454 -31.68365479 205.7746582 C-31.68581365 205.05685378 -31.68797252 204.33904936 -31.69019681 203.59949329 C-31.72678286 191.46828072 -31.76672078 179.33708132 -31.80895758 167.20588714 C-31.83220295 160.49122782 -31.85373342 153.77657337 -31.87104797 147.06189537 C-31.91492523 130.21405936 -31.98929164 113.36684769 -32.13140869 96.51953125 C-32.14136494 95.31265797 -32.15132118 94.10578469 -32.16157913 92.8623395 C-32.22401666 85.64040038 -32.30589932 78.41907339 -32.41359806 71.1976639 C-32.44515203 68.96411824 -32.47196762 66.73049986 -32.49369717 64.49683702 C-32.52494623 61.43306529 -32.57473029 58.37014485 -32.62957764 55.30671692 C-32.63507787 54.41288461 -32.6405781 53.5190523 -32.646245 52.59813416 C-32.76960743 47.14936725 -33.72656731 43.41014268 -36.13140869 38.51953125 C-36.53546143 36.12353516 -36.53546143 36.12353516 -36.56500244 33.99609375 C-36.57644287 33.2069458 -36.5878833 32.41779785 -36.59967041 31.60473633 C-36.58951904 30.79286865 -36.57936768 29.98100098 -36.56890869 29.14453125 C-36.56133545 28.30108154 -36.55376221 27.45763184 -36.54595947 26.58862305 C-36.38373908 20.48167648 -35.65527396 15.64318811 -32.13140869 10.51953125 C-31.64929932 9.80539062 -31.16718994 9.09125 -30.67047119 8.35546875 C-29.22730599 6.34089803 -27.70665617 4.43140696 -26.13140869 2.51953125 C-25.53328369 1.69453125 -24.93515869 0.86953125 -24.31890869 0.01953125 C-18.22087342 -4.16197865 -7.03198533 -0.85737875 0 0 Z " fill="#D0314D" transform="translate(38.13140869140625,3.48046875)"/>
<path d="M0 0 C2.56393519 8.37552161 3.15074613 16.10888607 3.1328125 24.83984375 C3.13424759 26.39947594 3.13424759 26.39947594 3.13571167 27.99061584 C3.13639036 30.18848735 3.13455781 32.38636089 3.13037109 34.58422852 C3.12506745 37.89539277 3.1303013 41.20641833 3.13671875 44.51757812 C3.15032866 75.96624047 3.15032866 75.96624047 0 85 C-2.81030236 101.19349015 -2.22616597 118.35637065 -2.29754639 134.73156738 C-2.30747254 136.98411514 -2.32195903 139.23664766 -2.34112549 141.48913574 C-2.36503834 144.70390127 -2.36740231 147.91797373 -2.36328125 151.1328125 C-2.37240036 152.09448334 -2.38151947 153.05615417 -2.39091492 154.04696655 C-2.35443378 159.4796335 -1.6779193 163.93413344 0.29052734 169.01161194 C3.18544309 177.1249844 2.19926654 186.72141279 2.1875 195.1875 C2.18709213 196.28661209 2.18709213 196.28661209 2.18667603 197.40792847 C2.16464849 210.5921997 1.81728257 223.76517691 1.30728149 236.93911743 C1.22744313 239.0209562 1.15222527 241.1029773 1.08163452 243.18515015 C0.97971785 246.11515932 0.85813931 249.04367019 0.73046875 251.97265625 C0.70218994 252.85750702 0.67391113 253.74235779 0.64477539 254.65402222 C0.52416992 257.10571289 0.52416992 257.10571289 0 261 C-0.99 261.66 -1.98 262.32 -3 263 C-2.75612549 264.80161087 -2.75612549 264.80161087 -2.50732422 266.63961792 C-1.804493 273.01055831 -1.85664646 279.36335796 -1.8828125 285.76611328 C-1.88741989 287.74266246 -1.88741989 287.74266246 -1.89212036 289.75914192 C-1.94456362 303.42868382 -2.38177742 317.08221832 -2.875 330.7421875 C-2.96513178 333.34488392 -3.05480307 335.94759633 -3.14404297 338.55032349 C-3.35241303 344.60560403 -3.56593815 350.66069019 -3.78153038 356.71571743 C-4.02754558 363.63270289 -4.26748675 370.54989541 -4.50703049 377.46710753 C-4.99814168 391.64497058 -5.49651434 405.82257125 -6 420 C-7.11504772 419.89529184 -7.11504772 419.89529184 -8.25262165 419.78846836 C-9.23412787 419.69750857 -10.2156341 419.60654879 -11.22688293 419.51283264 C-12.19712308 419.4224022 -13.16736322 419.33197176 -14.16700459 419.238801 C-17.94820323 418.92007333 -21.7193177 418.77585945 -25.51171875 418.68359375 C-26.25081985 418.66281265 -26.98992096 418.64203156 -27.75141907 418.62062073 C-30.06337145 418.5563449 -32.37541577 418.49682146 -34.6875 418.4375 C-36.27539933 418.39419808 -37.86329008 418.35058057 -39.45117188 418.30664062 C-43.30069221 418.20079311 -47.15030289 418.09920091 -51 418 C-51.66 419.65 -52.32 421.3 -53 423 C-60.62303071 423.1875184 -67.99541152 422.4420148 -75.5625 421.5625 C-84.67331653 420.53885273 -93.74013324 419.63737739 -102.8984375 419.2109375 C-106 419 -106 419 -108.68725586 418.51806641 C-112.4895312 417.92344423 -116.26697996 417.68556525 -120.10546875 417.5 C-121.27931877 417.43949966 -121.27931877 417.43949966 -122.47688293 417.3777771 C-125.04688194 417.24719731 -127.61711756 417.12279085 -130.1875 417 C-131.5329187 416.93513397 -131.5329187 416.93513397 -132.90551758 416.86895752 C-139.26970411 416.56431297 -145.63458102 416.27759456 -152 416 C-152.73172424 415.96757202 -153.46344849 415.93514404 -154.21734619 415.9017334 C-201.49057046 413.826166 -248.90185887 414.80784911 -296.1875 415.9375 C-297.11306072 415.95931461 -298.03862144 415.98112923 -298.99222946 416.00360489 C-304.36314038 416.13036554 -309.73389913 416.26185214 -315.10451508 416.40056992 C-316.74207906 416.44265487 -318.37966725 416.48381048 -320.01728058 416.5239296 C-328.42329212 416.73212416 -336.78278099 417.08578306 -345.16526794 417.78730774 C-349.07160568 418.08040345 -352.95541286 418.14416304 -356.87109375 418.1328125 C-357.64074966 418.13376923 -358.41040558 418.13472595 -359.2033844 418.13571167 C-360.80884891 418.13638313 -362.41431632 418.13460241 -364.01977539 418.13037109 C-366.43056547 418.12501541 -368.84116869 418.13034814 -371.25195312 418.13671875 C-384.14067335 418.14397958 -396.87736154 417.73550199 -409.5625 415.25 C-410.4587207 415.0751709 -411.35494141 414.9003418 -412.27832031 414.72021484 C-424.76317771 412.15800717 -438.49867709 408.08891212 -446 397 C-426.78733951 383.92541027 -398.79262551 386.81646926 -376.4375 386.875 C-375.34098114 386.87688324 -374.24446228 386.87876648 -373.11471558 386.88070679 C-347.58814112 386.93166264 -322.10621927 387.28027079 -296.6171875 388.734375 C-269.8203564 390.25409213 -243.14861991 391.28995176 -216.3125 391.25 C-215.27865236 391.24929945 -215.27865236 391.24929945 -214.22391891 391.24858475 C-209.64528183 391.24529959 -205.06685988 391.22862774 -200.48828125 391.203125 C-199.33887054 391.19874924 -198.18945984 391.19437347 -197.00521851 391.18986511 C-186.81726318 391.69754717 -186.81726318 391.69754717 -177.90625 388.15234375 C-177.21015625 387.05599609 -177.21015625 387.05599609 -176.5 385.9375 C-176.0153125 385.20402344 -175.530625 384.47054688 -175.03125 383.71484375 C-174.6909375 383.14894531 -174.350625 382.58304687 -174 382 C-166.68201821 383.28742272 -159.83586843 384.97865956 -154.61630249 390.53959656 C-150.05524011 394.33159591 -144.78752238 393.70310539 -139.11962891 393.65942383 C-137.92881714 393.66990753 -136.73800537 393.68039124 -135.5111084 393.69119263 C-132.25922227 393.71499675 -129.00822219 393.71688155 -125.7562871 393.70889878 C-122.35291919 393.70576737 -118.94975959 393.73082648 -115.54647827 393.75285339 C-109.10801749 393.79026295 -102.66976791 393.80243952 -96.23120916 393.8054778 C-88.89858082 393.81017201 -81.5661636 393.84310687 -74.23362851 393.87837565 C-59.15577672 393.95026796 -44.07802603 393.98682013 -29 394 C-28.51190062 390.30597724 -28.02624525 386.61163705 -27.54101562 382.91723633 C-27.40342834 381.87617989 -27.26584106 380.83512344 -27.12408447 379.76251984 C-21.44771521 336.46947785 -22.97440344 291.71261139 -22.83205748 248.10923266 C-22.81897985 244.2579605 -22.80335415 240.40669879 -22.78799438 236.55543518 C-22.7758428 233.44385835 -22.76385674 230.33228091 -22.75195312 227.22070312 C-22.7475047 226.06091456 -22.7475047 226.06091456 -22.74296641 224.87769592 C-22.7098155 216.11027524 -22.68429499 207.3429185 -22.67407227 198.57543945 C-22.66569687 191.46229479 -22.64330054 184.34934519 -22.6047166 177.23629826 C-22.58508437 173.51215763 -22.5725119 169.78830742 -22.57755089 166.06411171 C-22.58304703 161.96083856 -22.55785205 157.85830943 -22.5300293 153.75512695 C-22.53663071 152.54457642 -22.54323212 151.33402588 -22.55003357 150.08679199 C-22.47850968 143.68791704 -22.20061042 139.9112583 -18 135 C-14.18775612 125.56971251 -14.8032283 115.42492734 -14.8125 105.4375 C-14.8117749 104.63967102 -14.8110498 103.84184204 -14.81030273 103.01983643 C-14.81137481 92.25702106 -15.16177235 81.60824308 -16 70.875 C-16.78979632 60.61390505 -17.24341472 50.40206586 -17.29956055 40.11334229 C-17.30803183 38.64793027 -17.32151007 37.18253658 -17.34057617 35.71722412 C-17.47935287 23.89544147 -17.00337437 11.44350958 -9 2 C-5.75552233 -0.61140886 -3.95601066 -1.61170805 0 0 Z " fill="#D0324E" transform="translate(508,64)"/>
<path d="M0 0 C22.78247354 -2.25817469 47.77051081 11.78973254 67.734375 21.1015625 C74.4473283 24.2270006 81.21793052 27.21562002 88 30.1875 C89.09924805 30.66936768 90.19849609 31.15123535 91.33105469 31.64770508 C93.88670309 32.76667241 96.44295517 33.88422827 99 35 C99 37.64 99 40.28 99 43 C95.37 43.66 91.74 44.32 88 45 C87.79375 46.629375 87.5875 48.25875 87.375 49.9375 C85.95716365 58.34605722 83.06755033 66.07821444 80 74 C79.67128906 74.85835449 79.34257812 75.71670898 79.00390625 76.60107422 C77.98203937 79.24298572 76.93385569 81.87271742 75.875 84.5 C75.55063965 85.33152588 75.2262793 86.16305176 74.89208984 87.01977539 C74.57449707 87.78668701 74.2569043 88.55359863 73.9296875 89.34375 C73.65366699 90.02630859 73.37764648 90.70886719 73.09326172 91.41210938 C72 93 72 93 70.09423828 93.83789062 C67.05284677 94.07331659 65.10442762 92.54615779 62.50390625 91.125 C57.59818272 88.92086836 52.2511401 88.05663185 47 87 C47 90.63 47 94.26 47 98 C38.29464286 98.80357143 38.29464286 98.80357143 34.4375 95.8125 C15.39899917 76.90560171 7.68624606 43.13143982 2 18 C1.82339844 17.3385498 1.64679688 16.67709961 1.46484375 15.99560547 C0.41783834 12.07394347 -0.23870748 8.59346923 -0.125 4.5 C-0.10695313 3.6440625 -0.08890625 2.788125 -0.0703125 1.90625 C-0.04710937 1.2771875 -0.02390625 0.648125 0 0 Z " fill="#D0304D" transform="translate(304,283)"/>
<path d="M0 0 C2.9251902 27.62679634 -18.90378361 59.37781506 -34 81 C-34.5775 81.84691406 -35.155 82.69382812 -35.75 83.56640625 C-38.72531469 87.77368718 -41.51459383 90.43691076 -46 93 C-46 89.37 -46 85.74 -46 82 C-47.4025 82.0825 -48.805 82.165 -50.25 82.25 C-59.94337515 82.22254001 -69.00362303 78.75392826 -76 72 C-76.5775 71.071875 -77.155 70.14375 -77.75 69.1875 C-81.13168771 65.89974806 -84.64658482 66.29900572 -89.22265625 66.140625 C-92 66 -92 66 -95 65 C-94.54554036 63.58208592 -94.08625056 62.16571954 -93.625 60.75 C-93.36976562 59.96109375 -93.11453125 59.1721875 -92.8515625 58.359375 C-92 56 -92 56 -90.90625 54.15625 C-89.57883864 50.99792643 -89.81196648 48.15381001 -89.875 44.75 C-89.90207031 42.85507812 -89.90207031 42.85507812 -89.9296875 40.921875 C-89.95289063 39.95765625 -89.97609375 38.9934375 -90 38 C-91.98 37.01 -93.96 36.02 -96 35 C-93.91411833 32.74608072 -91.94914344 31.27280473 -89.22900391 29.85864258 C-88.47616119 29.46425491 -87.72331848 29.06986725 -86.94766235 28.66352844 C-86.1321994 28.24475937 -85.31673645 27.8259903 -84.4765625 27.39453125 C-83.62057465 26.95163254 -82.76458679 26.50873383 -81.88265991 26.05241394 C-80.06005901 25.11222099 -78.23584246 24.17515451 -76.41015625 23.2409668 C-73.69145269 21.84658264 -70.98233975 20.43479229 -68.2734375 19.02148438 C-45.91395603 7.47545602 -25.34356103 -0.71577003 0 0 Z " fill="#D0304D" transform="translate(219,282)"/>
<path d="M0 0 C0.54269531 0.433125 1.08539063 0.86625 1.64453125 1.3125 C2.36640625 1.663125 3.08828125 2.01375 3.83203125 2.375 C6.01522238 4.70875603 5.81397394 5.34946966 5.89453125 8.4375 C6.26546682 13.81175254 8.75681671 16.00308803 12.390625 19.75390625 C27.03620655 36.37930645 33.18607829 61.85496711 35.64453125 83.3125 C23.44279817 84.11799338 13.85998383 82.10303466 2.45703125 77.875 C0.91502187 77.32265767 -0.62746473 76.77164594 -2.17041016 76.22192383 C-44.38227339 61.04577779 -44.38227339 61.04577779 -53.35546875 51.3125 C-53.02546875 50.3225 -52.69546875 49.3325 -52.35546875 48.3125 C-48.75167895 46.79089986 -46.30326189 46.3125 -42.35546875 46.3125 C-42.75378906 45.755625 -43.15210938 45.19875 -43.5625 44.625 C-48.04550298 38.1677305 -51.60686202 32.41294989 -51.35546875 24.3125 C-50.14153442 23.70946045 -50.14153442 23.70946045 -48.90307617 23.09423828 C-45.80664836 21.55469938 -42.71121463 20.01319425 -39.61639404 18.47042847 C-38.23772519 17.78361023 -36.85869838 17.09751005 -35.47930908 16.41213989 C-28.69288402 13.03937021 -21.91933524 9.66405582 -15.2734375 6.01953125 C-14.40630127 5.54563965 -13.53916504 5.07174805 -12.64575195 4.58349609 C-11.07013727 3.71358733 -9.50178878 2.83034626 -7.94213867 1.93212891 C-2.90166167 -0.84691949 -2.90166167 -0.84691949 0 0 Z " fill="#D0304D" transform="translate(185.35546875,118.6875)"/>
<path d="M0 0 C2.33944736 0.28730055 4.6739143 0.61936779 7 1 C7.495 2.98 7.495 2.98 8 5 C9.0725 4.67 10.145 4.34 11.25 4 C16.79160922 2.58469692 22.32102129 2.82963064 28 3 C33.33141084 13.3878492 38.30850231 23.90283956 43.05395508 34.57226562 C45.42072232 39.82693112 47.84762752 44.62474922 51.28833008 49.26367188 C52 51 52 51 51.27099609 53.09082031 C40.60602863 69.11080602 13.94563477 76.24640378 -3.56005859 79.76455688 C-5.32980565 80.11157612 -7.10024376 80.4550887 -8.87133789 80.79516602 C-11.59187247 81.3181464 -14.30866189 81.85801905 -17.02539062 82.40039062 C-18.7680377 82.74316236 -20.51086993 83.08499441 -22.25390625 83.42578125 C-23.46174522 83.66473869 -23.46174522 83.66473869 -24.69398499 83.90852356 C-28.51817386 84.63778914 -32.08526134 85.19718031 -36 85 C-30.16657702 59.05757232 -19.03713317 19.03713317 0 0 Z " fill="#D0304D" transform="translate(338,118)"/>
</svg>
